<svg preserveAspectRatio="none" width="100%" height="100%" overflow="visible" style="display: block;" viewBox="0 0 219 64" fill="none" xmlns="http://www.w3.org/2000/svg">
<g id="transferir 1" clip-path="url(#clip0_45_3462)">
<path id="Vector" d="M100.68 56.9541L85.1067 17.3469H91.1841L104.478 51.9186L117.621 17.3469H123.774L108.049 56.9541H100.68Z" fill="var(--fill-0, #ECF2F7)"/>
<path id="Vector_2" d="M140.893 57.405C136.69 57.405 133.195 56.5532 130.409 54.8497C127.624 53.096 125.548 50.6911 124.18 47.6347C122.813 44.5784 122.129 41.0962 122.129 37.1881C122.129 33.2799 122.838 29.8228 124.256 26.8165C125.675 23.7602 127.776 21.3552 130.561 19.6016C133.347 17.7978 136.766 16.8959 140.817 16.8959C143.856 16.8959 146.464 17.447 148.642 18.5494C150.87 19.6516 152.693 21.1548 154.111 23.0587C155.58 24.9626 156.644 27.0671 157.302 29.3718C158.011 31.6766 158.365 34.0315 158.365 36.4365C158.315 36.8874 158.29 37.3384 158.29 37.7893C158.29 38.1902 158.265 38.5909 158.214 38.9918H127.523C127.726 41.6473 128.333 44.0272 129.346 46.1316C130.359 48.1859 131.828 49.8143 133.752 51.0167C135.727 52.1692 138.184 52.7453 141.121 52.7453C142.488 52.7453 143.881 52.595 145.299 52.2944C146.718 51.9437 148.009 51.3675 149.173 50.5658C150.338 49.714 151.2 48.6118 151.756 47.259H157.378C156.669 49.6139 155.479 51.5428 153.807 53.046C152.136 54.5491 150.161 55.6513 147.882 56.3528C145.603 57.0543 143.273 57.405 140.893 57.405ZM127.675 34.4073H152.896C152.845 31.9522 152.314 29.7727 151.301 27.8687C150.288 25.9147 148.895 24.3865 147.122 23.2842C145.35 22.1318 143.172 21.5556 140.589 21.5556C137.905 21.5556 135.626 22.1569 133.752 23.3594C131.878 24.5619 130.435 26.1401 129.422 28.0942C128.46 30.0482 127.878 32.1526 127.675 34.4073Z" fill="var(--fill-0, #ECF2F7)"/>
<path id="Vector_3" d="M161.267 56.9541V17.3469H166.433L166.661 24.4115C167.674 22.5076 168.915 21.0295 170.383 19.9773C171.903 18.9252 173.549 18.1736 175.321 17.7227C177.144 17.2216 178.993 16.9711 180.867 16.9711C181.171 16.9711 181.45 16.9711 181.702 16.9711C181.956 16.9711 182.234 16.9711 182.538 16.9711V21.8562H180.791C177.448 21.8562 174.713 22.5577 172.586 23.9606C170.51 25.3635 168.991 27.2675 168.028 29.6725C167.117 32.0774 166.661 34.758 166.661 37.7141V56.9541H161.267Z" fill="var(--fill-0, #ECF2F7)"/>
<path id="Vector_4" d="M199.889 57.405C195.686 57.405 192.166 56.5532 189.329 54.8497C186.494 53.096 184.367 50.6911 182.948 47.6347C181.581 44.5784 180.897 41.0962 180.897 37.1881C180.897 33.2299 181.606 29.7476 183.024 26.7414C184.442 23.685 186.57 21.28 189.405 19.5264C192.242 17.7727 195.762 16.8959 199.965 16.8959C204.169 16.8959 207.663 17.7727 210.448 19.5264C213.285 21.28 215.386 23.685 216.754 26.7414C218.172 29.7476 218.881 33.2299 218.881 37.1881C218.881 41.0962 218.172 44.5784 216.754 47.6347C215.336 50.6911 213.209 53.096 210.372 54.8497C207.587 56.5532 204.093 57.405 199.889 57.405ZM199.889 52.7453C203.029 52.7453 205.612 52.0689 207.638 50.7161C209.664 49.3132 211.158 47.4343 212.12 45.0794C213.082 42.7245 213.563 40.0941 213.563 37.1881C213.563 34.282 213.082 31.6515 212.12 29.2967C211.158 26.9418 209.664 25.0629 207.638 23.66C205.612 22.2571 203.029 21.5556 199.889 21.5556C196.749 21.5556 194.166 22.2571 192.14 23.66C190.115 25.0629 188.621 26.9418 187.658 29.2967C186.746 31.6515 186.291 34.282 186.291 37.1881C186.291 40.0941 186.746 42.7245 187.658 45.0794C188.621 47.4343 190.115 49.3132 192.14 50.7161C194.166 52.0689 196.749 52.7453 199.889 52.7453Z" fill="var(--fill-0, #ECF2F7)"/>
<path id="Vector_5" d="M32.7663 5.22248L32.7721 9.06193L64.1581 14.0642L59.032 22.3641L66.9659 23.629L35.772 63.7622L33.6734 63.4269L33.627 63.4199L32.8585 63.2972L32.859 63.2983L0.0927337 58.0757L0 0L32.7663 5.22248ZM32.8411 52.3171L53.7891 18.1697L32.7814 14.8211L32.8411 52.3171Z" fill="var(--fill-0, #ECF2F7)"/>
</g>
<defs>
<clipPath id="clip0_45_3462">
<rect width="219" height="64" fill="white"/>
</clipPath>
</defs>
</svg>
