<svg preserveAspectRatio="none" width="100%" height="100%" overflow="visible" style="display: block;" viewBox="0 0 16 16" fill="none" xmlns="http://www.w3.org/2000/svg">
<g id="Group 1">
<g id="loading">
<mask id="path-1-inside-1_45_3469" fill="white">
<path d="M15.1263 11.6354C15.9536 10.0136 16.203 8.15804 15.8333 6.37533C15.4636 4.59261 14.4968 2.98934 13.0927 1.83034C11.6886 0.671339 9.93113 0.0259458 8.11065 0.000765683C6.29017 -0.0244145 4.51555 0.572124 3.07993 1.69185C1.6443 2.81157 0.63356 4.38749 0.214649 6.1593C-0.204262 7.9311 -0.00628034 9.7928 0.775893 11.4369C1.55807 13.081 2.87764 14.4091 4.51664 15.2018C6.15565 15.9946 8.01603 16.2045 9.7905 15.7971L9.5142 14.5939C8.01356 14.9385 6.44026 14.7609 5.05417 14.0905C3.66809 13.4201 2.55215 12.2969 1.89067 10.9065C1.2292 9.51615 1.06177 7.94174 1.41604 6.44334C1.77031 4.94495 2.62508 3.61222 3.83916 2.66528C5.05325 1.71835 6.55402 1.21386 8.09358 1.23516C9.63313 1.25645 11.1194 1.80225 12.3068 2.7824C13.4942 3.76255 14.3118 5.11842 14.6245 6.62604C14.9372 8.13365 14.7263 9.70284 14.0266 11.0744L15.1263 11.6354Z"/>
</mask>
<path d="M15.1263 11.6354C15.9536 10.0136 16.203 8.15804 15.8333 6.37533C15.4636 4.59261 14.4968 2.98934 13.0927 1.83034C11.6886 0.671339 9.93113 0.0259458 8.11065 0.000765683C6.29017 -0.0244145 4.51555 0.572124 3.07993 1.69185C1.6443 2.81157 0.63356 4.38749 0.214649 6.1593C-0.204262 7.9311 -0.00628034 9.7928 0.775893 11.4369C1.55807 13.081 2.87764 14.4091 4.51664 15.2018C6.15565 15.9946 8.01603 16.2045 9.7905 15.7971L9.5142 14.5939C8.01356 14.9385 6.44026 14.7609 5.05417 14.0905C3.66809 13.4201 2.55215 12.2969 1.89067 10.9065C1.2292 9.51615 1.06177 7.94174 1.41604 6.44334C1.77031 4.94495 2.62508 3.61222 3.83916 2.66528C5.05325 1.71835 6.55402 1.21386 8.09358 1.23516C9.63313 1.25645 11.1194 1.80225 12.3068 2.7824C13.4942 3.76255 14.3118 5.11842 14.6245 6.62604C14.9372 8.13365 14.7263 9.70284 14.0266 11.0744L15.1263 11.6354Z" stroke="var(--stroke-0, white)" stroke-width="2" mask="url(#path-1-inside-1_45_3469)"/>
</g>
</g>
</svg>
