<svg width="12" height="15" viewBox="0 0 12 15" fill="none" xmlns="http://www.w3.org/2000/svg">
<path d="M5.95801 0C6.25077 0 6.53552 0.091318 6.77246 0.259766L6.87109 0.336914L6.87598 0.341797C7.97359 1.30143 9.49348 2 10.625 2C10.9676 2.00001 11.2959 2.13668 11.5381 2.37891C11.7803 2.62114 11.917 2.94943 11.917 3.29199V7.95898C11.9169 9.79055 11.2678 11.1963 10.2256 12.2656C9.20031 13.3175 7.82193 14.0167 6.39062 14.5156L6.38574 14.5176C6.10891 14.6114 5.80894 14.6067 5.53418 14.5078V14.5098C4.09916 14.0142 2.71884 13.3167 1.69238 12.2656C0.648935 11.197 8.29366e-05 9.79053 0 7.95898V3.29199C0 2.94958 0.135907 2.62111 0.37793 2.37891C0.620164 2.13667 0.949421 2 1.29199 2C2.42302 1.99986 3.94859 1.29426 5.04004 0.34082L5.0459 0.336914C5.30022 0.11966 5.62353 7.47358e-05 5.95801 0ZM8.35938 5.6084C8.11545 5.3646 7.71869 5.36486 7.47461 5.6084L5.25 7.83301L4.35938 6.94238C4.11545 6.69859 3.71869 6.69884 3.47461 6.94238C3.23095 7.18639 3.23092 7.58218 3.47461 7.82617L4.80859 9.15918C4.92573 9.27631 5.08436 9.34269 5.25 9.34277C5.41562 9.34267 5.57526 9.2763 5.69238 9.15918L8.35938 6.49316C8.60295 6.24905 8.60328 5.85231 8.35938 5.6084Z" fill="#D4A041"/>
</svg>
