<svg width="156" height="168" viewBox="0 0 156 168" fill="none" xmlns="http://www.w3.org/2000/svg">
<g clip-path="url(#clip0_7_296)">
<g filter="url(#filter0_dii_7_296)">
<path d="M78 32.2148C79.4663 32.2148 80.8874 32.7093 82.0381 33.6142L82.2646 33.8007L82.2695 33.8056C91.081 41.5713 103.575 47.5624 113.521 47.5624C115.034 47.5625 116.484 48.169 117.553 49.246C118.621 50.3227 119.22 51.7822 119.22 53.3026V89.1093C119.22 102.061 114.716 111.807 107.525 119.244C100.352 126.663 90.5322 131.756 79.9326 135.48L79.9277 135.481C78.6901 135.904 77.3456 135.885 76.1201 135.429V135.43C65.4946 131.731 55.6619 126.651 48.4814 119.238C41.2843 111.808 36.7803 102.061 36.7803 89.1093V53.3026C36.7804 51.782 37.3801 50.3228 38.4482 49.246C39.5166 48.1692 40.9665 47.5624 42.4795 47.5624C52.4241 47.5623 64.9692 41.5206 73.7305 33.8056L73.7354 33.8007C74.9233 32.7777 76.4359 32.2148 78 32.2148ZM96.0684 70.9452C94.2077 69.0755 91.1825 69.0764 89.3213 70.9452L73.0654 87.286C72.6745 87.6788 72.0383 87.679 71.6475 87.286L65.5654 81.1708C63.7049 79.3012 60.6796 79.3023 58.8184 81.1708C56.9602 83.0414 56.9598 86.0758 58.8184 87.9462L68.9902 98.1649C69.8834 99.0628 71.0934 99.5714 72.3564 99.5722C73.62 99.5718 74.837 99.0631 75.7305 98.1649L96.0684 77.7274C97.9274 75.8563 97.9286 72.8156 96.0684 70.9452Z" fill="url(#paint0_linear_7_296)"/>
<path d="M78 32.2148C79.4663 32.2148 80.8874 32.7093 82.0381 33.6142L82.2646 33.8007L82.2695 33.8056C91.081 41.5713 103.575 47.5624 113.521 47.5624C115.034 47.5625 116.484 48.169 117.553 49.246C118.621 50.3227 119.22 51.7822 119.22 53.3026V89.1093C119.22 102.061 114.716 111.807 107.525 119.244C100.352 126.663 90.5322 131.756 79.9326 135.48L79.9277 135.481C78.6901 135.904 77.3456 135.885 76.1201 135.429V135.43C65.4946 131.731 55.6619 126.651 48.4814 119.238C41.2843 111.808 36.7803 102.061 36.7803 89.1093V53.3026C36.7804 51.782 37.3801 50.3228 38.4482 49.246C39.5166 48.1692 40.9665 47.5624 42.4795 47.5624C52.4241 47.5623 64.9692 41.5206 73.7305 33.8056L73.7354 33.8007C74.9233 32.7777 76.4359 32.2148 78 32.2148ZM96.0684 70.9452C94.2077 69.0755 91.1825 69.0764 89.3213 70.9452L73.0654 87.286C72.6745 87.6788 72.0383 87.679 71.6475 87.286L65.5654 81.1708C63.7049 79.3012 60.6796 79.3023 58.8184 81.1708C56.9602 83.0414 56.9598 86.0758 58.8184 87.9462L68.9902 98.1649C69.8834 99.0628 71.0934 99.5714 72.3564 99.5722C73.62 99.5718 74.837 99.0631 75.7305 98.1649L96.0684 77.7274C97.9274 75.8563 97.9286 72.8156 96.0684 70.9452Z" fill="url(#paint1_radial_7_296)" style="mix-blend-mode:overlay"/>
<path d="M78 32.2148C79.4663 32.2148 80.8874 32.7093 82.0381 33.6142L82.2646 33.8007L82.2695 33.8056C91.081 41.5713 103.575 47.5624 113.521 47.5624C115.034 47.5625 116.484 48.169 117.553 49.246C118.621 50.3227 119.22 51.7822 119.22 53.3026V89.1093C119.22 102.061 114.716 111.807 107.525 119.244C100.352 126.663 90.5322 131.756 79.9326 135.48L79.9277 135.481C78.6901 135.904 77.3456 135.885 76.1201 135.429V135.43C65.4946 131.731 55.6619 126.651 48.4814 119.238C41.2843 111.808 36.7803 102.061 36.7803 89.1093V53.3026C36.7804 51.782 37.3801 50.3228 38.4482 49.246C39.5166 48.1692 40.9665 47.5624 42.4795 47.5624C52.4241 47.5623 64.9692 41.5206 73.7305 33.8056L73.7354 33.8007C74.9233 32.7777 76.4359 32.2148 78 32.2148ZM96.0684 70.9452C94.2077 69.0755 91.1825 69.0764 89.3213 70.9452L73.0654 87.286C72.6745 87.6788 72.0383 87.679 71.6475 87.286L65.5654 81.1708C63.7049 79.3012 60.6796 79.3023 58.8184 81.1708C56.9602 83.0414 56.9598 86.0758 58.8184 87.9462L68.9902 98.1649C69.8834 99.0628 71.0934 99.5714 72.3564 99.5722C73.62 99.5718 74.837 99.0631 75.7305 98.1649L96.0684 77.7274C97.9274 75.8563 97.9286 72.8156 96.0684 70.9452Z" fill="#FFA500" fill-opacity="0.34"/>
</g>
</g>
<defs>
<filter id="filter0_dii_7_296" x="-12.4657" y="10.5465" width="180.931" height="202.062" filterUnits="userSpaceOnUse" color-interpolation-filters="sRGB">
<feFlood flood-opacity="0" result="BackgroundImageFix"/>
<feColorMatrix in="SourceAlpha" type="matrix" values="0 0 0 0 0 0 0 0 0 0 0 0 0 0 0 0 0 0 127 0" result="hardAlpha"/>
<feOffset dy="27.5777"/>
<feGaussianBlur stdDeviation="24.623"/>
<feColorMatrix type="matrix" values="0 0 0 0 0.824932 0 0 0 0 0.824932 0 0 0 0 0.824932 0 0 0 1 0"/>
<feBlend mode="normal" in2="BackgroundImageFix" result="effect1_dropShadow_7_296"/>
<feBlend mode="normal" in="SourceGraphic" in2="effect1_dropShadow_7_296" result="shape"/>
<feColorMatrix in="SourceAlpha" type="matrix" values="0 0 0 0 0 0 0 0 0 0 0 0 0 0 0 0 0 0 127 0" result="hardAlpha"/>
<feOffset dy="-1.22673"/>
<feGaussianBlur stdDeviation="0.306684"/>
<feComposite in2="hardAlpha" operator="arithmetic" k2="-1" k3="1"/>
<feColorMatrix type="matrix" values="0 0 0 0 0 0 0 0 0 0 0 0 0 0 0 0 0 0 0.5 0"/>
<feBlend mode="normal" in2="shape" result="effect2_innerShadow_7_296"/>
<feColorMatrix in="SourceAlpha" type="matrix" values="0 0 0 0 0 0 0 0 0 0 0 0 0 0 0 0 0 0 127 0" result="hardAlpha"/>
<feOffset dy="1.22673"/>
<feGaussianBlur stdDeviation="0.306684"/>
<feComposite in2="hardAlpha" operator="arithmetic" k2="-1" k3="1"/>
<feColorMatrix type="matrix" values="0 0 0 0 1 0 0 0 0 1 0 0 0 0 1 0 0 0 0.4 0"/>
<feBlend mode="normal" in2="effect2_innerShadow_7_296" result="effect3_innerShadow_7_296"/>
</filter>
<linearGradient id="paint0_linear_7_296" x1="40.7403" y1="117.336" x2="132.347" y2="65.7833" gradientUnits="userSpaceOnUse">
<stop offset="0.0677083" stop-color="#4D5455"/>
<stop offset="0.21875" stop-color="#9EA1A1"/>
<stop offset="0.453125" stop-color="#848B8A"/>
<stop offset="0.524381" stop-color="#535D5E"/>
<stop offset="0.796875" stop-color="#4B5355"/>
<stop offset="0.895833" stop-color="#757A7B"/>
<stop offset="1" stop-color="#4D5455"/>
</linearGradient>
<radialGradient id="paint1_radial_7_296" cx="0" cy="0" r="1" gradientTransform="matrix(52.4906 72.1725 -55.4913 76.6386 26.0383 34.8871)" gradientUnits="userSpaceOnUse">
<stop stop-color="white"/>
<stop offset="1" stop-color="white" stop-opacity="0"/>
</radialGradient>
<clipPath id="clip0_7_296">
<rect width="156" height="168" fill="white"/>
</clipPath>
</defs>
</svg>
